<?xml version="1.0" encoding="UTF-8"?>
<svg version="1.1" xmlns="http://www.w3.org/2000/svg" width="288" height="288">
<path d="M0 0 C1.10794922 -0.01224609 2.21589844 -0.02449219 3.35742188 -0.03710938 C10.88403702 -0.05030625 17.93308313 0.75012371 25.3125 2.1875 C26.73428082 2.42764159 28.15614619 2.66728356 29.578125 2.90625 C54.17347962 7.52035682 75.97322878 19.3001434 94.578125 35.77734375 C96.32018412 37.31284444 98.10672486 38.80025508 99.9453125 40.21875 C102.35416963 42.22215593 104.07624229 44.23857693 105.9375 46.75 C108.18367749 49.79270457 108.18367749 49.79270457 110.73046875 52.57421875 C135.30769646 77.63692257 142.7514337 115.14500627 142.4609375 148.79296875 C141.8744035 181.88406344 127.77820305 215.90692975 104.76171875 239.83984375 C103.95347656 240.61457031 103.14523438 241.38929688 102.3125 242.1875 C101.53390625 242.98800781 100.7553125 243.78851563 99.953125 244.61328125 C77.61482664 266.38981767 51.214011 277.10101473 21.3125 284.1875 C22.6325 284.8475 23.9525 285.5075 25.3125 286.1875 C8.4825 286.1875 -8.3475 286.1875 -25.6875 286.1875 C-21.6875 284.1875 -21.6875 284.1875 -18.6875 283.1875 C-19.656875 283.23132813 -20.62625 283.27515625 -21.625 283.3203125 C-26.1809735 283.31345109 -30.31319254 282.25719757 -34.6875 281.0625 C-35.52200684 280.8365918 -36.35651367 280.61068359 -37.21630859 280.37792969 C-51.28618566 276.45007781 -63.98007355 270.2936729 -76.6875 263.1875 C-77.67492187 262.64480469 -78.66234375 262.10210937 -79.6796875 261.54296875 C-80.34226563 261.09566406 -81.00484375 260.64835937 -81.6875 260.1875 C-81.6875 259.5275 -81.6875 258.8675 -81.6875 258.1875 C-82.38875 257.96707031 -83.09 257.74664062 -83.8125 257.51953125 C-87.35805123 255.87682341 -89.8963152 253.54221086 -92.6875 250.875 C-93.44933594 250.1644043 -93.44933594 250.1644043 -94.2265625 249.43945312 C-97.44721099 246.42112743 -100.57148875 243.31379512 -103.6875 240.1875 C-104.34492187 239.56488281 -105.00234375 238.94226563 -105.6796875 238.30078125 C-110.82033714 233.38410182 -114.8506373 228.16586746 -118.6875 222.1875 C-119.0395752 221.64206543 -119.39165039 221.09663086 -119.75439453 220.53466797 C-140.6184333 187.92951142 -148.00346639 149.15338394 -139.6875 111.1875 C-139.49414062 110.16527344 -139.30078125 109.14304687 -139.1015625 108.08984375 C-132.08679782 74.97468839 -109.19068264 44.22012069 -81.6875 25.1875 C-81.02355225 24.72126221 -80.35960449 24.25502441 -79.67553711 23.7746582 C-74.21574674 20.01944042 -68.61631777 16.94605413 -62.625 14.125 C-61.25081909 13.47712524 -61.25081909 13.47712524 -59.84887695 12.81616211 C-46.89259684 6.83868514 -33.75177118 3.43292841 -19.6875 1.1875 C-18.64078125 1.00058594 -17.5940625 0.81367187 -16.515625 0.62109375 C-11.00756879 -0.00277792 -5.53892299 0.00316691 0 0 Z " fill="#2B5188" transform="translate(144.6875,1.8125)"/>
<path d="M0 0 C1.37486693 0.58364689 2.7498481 1.16702485 4.125 1.75 C5.07375 2.1625 6.0225 2.575 7 3 C7 3.66 7 4.32 7 5 C7.556875 5.2475 8.11375 5.495 8.6875 5.75 C11.42410913 7.22924818 13.67650869 8.93467439 16 11 C16 11.66 16 12.32 16 13 C16.66 13 17.32 13 18 13 C19.28430862 14.47695491 20.56580708 15.95806138 21.78125 17.4921875 C23.06784671 19.13813095 23.06784671 19.13813095 25 21 C26.28300122 23.67340298 27.47607969 26.33264665 28.625 29.0625 C29.11226562 30.15208008 29.11226562 30.15208008 29.609375 31.26367188 C31.91561244 36.74340831 32.31767197 41.0642404 32 47 C32.66 47.33 33.32 47.66 34 48 C33.34 48 32.68 48 32 48 C31.97421875 48.6290625 31.9484375 49.258125 31.921875 49.90625 C31.5566618 55.41764927 30.68421676 59.45344527 27.83984375 64.2109375 C26.71670654 66.27408411 26.71670654 66.27408411 27 70 C25.35648543 71.36176922 23.68477344 72.68962066 22 74 C20.19498317 76.25871024 18.61686675 78.59779797 17 81 C17.99 81 18.98 81 20 81 C20 81.66 20 82.32 20 83 C21.1446875 83.37125 21.1446875 83.37125 22.3125 83.75 C25.40974934 85.19058109 26.47511304 85.95022608 28 89 C28.35604482 91.80385295 28.23070747 94.13922731 28 97 C27.34 97.66 26.68 98.32 26 99 C22.375 98.625 22.375 98.625 19 98 C18.71125 97.195625 18.4225 96.39125 18.125 95.5625 C17.26737432 92.8673532 17.26737432 92.8673532 15 92 C12.68917466 91.90264181 10.37537042 91.87022627 8.0625 91.875 C6.19271484 91.87113281 6.19271484 91.87113281 4.28515625 91.8671875 C0.99323703 91.84800569 0.99323703 91.84800569 -2 93 C-1.608125 94.11375 -1.21625 95.2275 -0.8125 96.375 C-0.59207031 97.00148438 -0.37164062 97.62796875 -0.14453125 98.2734375 C1.51803714 100.78147582 3.14052229 101.15897715 6 102 C8.14087826 102.28938029 10.28764958 102.53729395 12.4375 102.75 C16.74277332 103.35946678 19.61055289 103.84388423 22.75 106.9375 C26.02549737 111.39581586 26.37638785 114.5423762 26 120 C24.5978989 123.42735824 23.49199902 124.70394245 20.3125 126.6171875 C13.62209139 129.41011751 5.19471637 129.04698583 -1.6875 126.8125 C-5.20912456 124.88557335 -6.59641134 123.74290311 -8 120 C-7.505 118.515 -7.505 118.515 -7 117 C-6.34 117 -5.68 117 -5 117 C-4.773125 117.78375 -4.54625 118.5675 -4.3125 119.375 C-3.24768757 122.15172517 -3.24768757 122.15172517 -0.76171875 123.1484375 C2.142521 124.04394566 4.46806613 124.26703334 7.5 124.25 C8.87671875 124.25773437 8.87671875 124.25773437 10.28125 124.265625 C14.33522146 123.86954733 17.10967748 122.89032252 20 120 C20.58342353 116.54230809 20.58342353 116.54230809 20 113 C15.0853674 108.96032093 9.7669412 109.59586692 3.69140625 109.50390625 C-1.62466244 108.77822068 -4.66770591 106.44331859 -8.25 102.5625 C-10.6687156 99.0208093 -12 96.3132396 -12 92 C-12.6290625 91.96261719 -13.258125 91.92523438 -13.90625 91.88671875 C-19.81051149 91.43322879 -24.55250146 90.32023086 -30 88 C-31.37274583 92.89235294 -31.47997864 97.82362475 -31.75 102.875 C-31.81832031 103.85597656 -31.88664062 104.83695312 -31.95703125 105.84765625 C-32.24706585 111.35831357 -32.29543091 115.29872012 -29 120 C-26.09907498 121.93395001 -25.10325263 122.30131941 -21.8125 122.625 C-19.9253125 122.810625 -19.9253125 122.810625 -18 123 C-18 124.32 -18 125.64 -18 127 C-23.2401071 127.42776385 -27.86266086 127.54541627 -32.4296875 124.5078125 C-38.17632597 118.98989596 -39.5954153 111.71173057 -39.953125 104.05078125 C-40.02511937 99.3651477 -40.08301669 94.68583101 -40 90 C-40.84304687 90.02320313 -41.68609375 90.04640625 -42.5546875 90.0703125 C-43.65039062 90.08835937 -44.74609375 90.10640625 -45.875 90.125 C-47.51082031 90.15980469 -47.51082031 90.15980469 -49.1796875 90.1953125 C-52 90 -52 90 -54 88 C-54.125 84.375 -54.125 84.375 -54 81 C-50.68885166 79.87119943 -47.41021743 78.78697325 -44 78 C-44.7528125 77.44441406 -45.505625 76.88882813 -46.28125 76.31640625 C-55.33673297 68.60103067 -61.37044016 54.67445859 -63 43 C-63 42.01 -63 41.02 -63 40 C-63.04125 38.9275 -63.0825 37.855 -63.125 36.75 C-62.79705417 26.91162514 -57.93870244 16.93870244 -51 10 C-48.125 8.3125 -48.125 8.3125 -45 7 C-43.865625 6.505 -42.73125 6.01 -41.5625 5.5 C-40.386875 5.005 -39.21125 4.51 -38 4 C-36.9275 3.525625 -35.855 3.05125 -34.75 2.5625 C-21.73518879 -3.01527623 -13.30496919 -5.84580536 0 0 Z " fill="#3E75C4" transform="translate(227,42)"/>
<path d="M0 0 C1.10794922 -0.01224609 2.21589844 -0.02449219 3.35742188 -0.03710938 C10.88403702 -0.05030625 17.93308313 0.75012371 25.3125 2.1875 C26.73428082 2.42764159 28.15614619 2.66728356 29.578125 2.90625 C54.17347962 7.52035682 75.97322878 19.3001434 94.578125 35.77734375 C96.32018412 37.31284444 98.10672486 38.80025508 99.9453125 40.21875 C102.35416963 42.22215593 104.07624229 44.23857693 105.9375 46.75 C108.18367749 49.79270457 108.18367749 49.79270457 110.73046875 52.57421875 C135.30769646 77.63692257 142.7514337 115.14500627 142.4609375 148.79296875 C141.8744035 181.88406344 127.77820305 215.90692975 104.76171875 239.83984375 C103.95347656 240.61457031 103.14523438 241.38929688 102.3125 242.1875 C101.53390625 242.98800781 100.7553125 243.78851563 99.953125 244.61328125 C77.61482664 266.38981767 51.214011 277.10101473 21.3125 284.1875 C22.6325 284.8475 23.9525 285.5075 25.3125 286.1875 C8.4825 286.1875 -8.3475 286.1875 -25.6875 286.1875 C-21.6875 284.1875 -21.6875 284.1875 -18.6875 283.1875 C-19.656875 283.23132813 -20.62625 283.27515625 -21.625 283.3203125 C-26.1809735 283.31345109 -30.31319254 282.25719757 -34.6875 281.0625 C-35.52200684 280.8365918 -36.35651367 280.61068359 -37.21630859 280.37792969 C-51.28618566 276.45007781 -63.98007355 270.2936729 -76.6875 263.1875 C-77.67492187 262.64480469 -78.66234375 262.10210937 -79.6796875 261.54296875 C-80.34226563 261.09566406 -81.00484375 260.64835937 -81.6875 260.1875 C-81.6875 259.5275 -81.6875 258.8675 -81.6875 258.1875 C-82.38875 257.96707031 -83.09 257.74664062 -83.8125 257.51953125 C-87.35805123 255.87682341 -89.8963152 253.54221086 -92.6875 250.875 C-93.44933594 250.1644043 -93.44933594 250.1644043 -94.2265625 249.43945312 C-97.44721099 246.42112743 -100.57148875 243.31379512 -103.6875 240.1875 C-104.34492187 239.56488281 -105.00234375 238.94226563 -105.6796875 238.30078125 C-110.82033714 233.38410182 -114.8506373 228.16586746 -118.6875 222.1875 C-119.0395752 221.64206543 -119.39165039 221.09663086 -119.75439453 220.53466797 C-140.6184333 187.92951142 -148.00346639 149.15338394 -139.6875 111.1875 C-139.49414062 110.16527344 -139.30078125 109.14304687 -139.1015625 108.08984375 C-132.08679782 74.97468839 -109.19068264 44.22012069 -81.6875 25.1875 C-81.02355225 24.72126221 -80.35960449 24.25502441 -79.67553711 23.7746582 C-74.21574674 20.01944042 -68.61631777 16.94605413 -62.625 14.125 C-61.25081909 13.47712524 -61.25081909 13.47712524 -59.84887695 12.81616211 C-46.89259684 6.83868514 -33.75177118 3.43292841 -19.6875 1.1875 C-18.64078125 1.00058594 -17.5940625 0.81367187 -16.515625 0.62109375 C-11.00756879 -0.00277792 -5.53892299 0.00316691 0 0 Z M-60.6875 16.1875 C-61.68185059 16.65712158 -61.68185059 16.65712158 -62.69628906 17.13623047 C-94.20319936 32.14292577 -119.5296439 60.31229473 -131.5625 93 C-132.64343889 96.050213 -133.68036096 99.11219403 -134.6875 102.1875 C-135.02652344 103.21746094 -135.36554688 104.24742188 -135.71484375 105.30859375 C-145.58312037 138.35013685 -140.82137547 176.93441079 -124.6875 207.1875 C-118.35215312 218.39521205 -111.10360085 228.73675754 -102.4375 238.25 C-101.92993164 238.81074219 -101.42236328 239.37148437 -100.89941406 239.94921875 C-98.37835461 242.65523365 -96.1761382 244.85018869 -92.6875 246.1875 C-92.6875 246.8475 -92.6875 247.5075 -92.6875 248.1875 C-82.1100379 257.40812903 -70.28099631 264.13673008 -57.6875 270.1875 C-56.64207031 270.70054687 -55.59664063 271.21359375 -54.51953125 271.7421875 C-21.98397414 286.51856181 17.33258589 285.52405367 50.3125 273.1875 C67.29444162 266.80460531 81.9851901 257.45526323 95.3125 245.1875 C95.81201172 244.73713379 96.31152344 244.28676758 96.82617188 243.82275391 C122.32352196 220.63806984 137.94180826 186.43942309 140.19140625 152.14453125 C141.86652608 111.23918576 128.16249321 75.91835598 101.375 45.4375 C91.19686698 34.47888416 78.94928363 25.97272708 65.86987305 18.85131836 C61.41609036 16.39468072 61.41609036 16.39468072 60.3125 14.1875 C58.46280395 13.60588646 58.46280395 13.60588646 56.25 13.25 C52.5466882 12.50121125 49.18832243 11.42599506 45.6640625 10.04296875 C30.94115145 4.68695958 16.67816173 2.7418976 1.125 2.75 C0.33247833 2.74959717 -0.46004333 2.74919434 -1.27658081 2.7487793 C-22.62664966 2.81107998 -41.44771991 6.82484998 -60.6875 16.1875 Z " fill="#969B9D" transform="translate(144.6875,1.8125)"/>
<path d="M0 0 C6.53413232 -0.35497298 11.16412223 -0.03951967 17 3 C17.66 3.33 18.32 3.66 19 4 C21.625 6.4375 21.625 6.4375 24 9 C24 9.66 24 10.32 24 11 C24.78375 11.28875 25.5675 11.5775 26.375 11.875 C29 13 29 13 31 15 C31 15.99 31 16.98 31 18 C31.20072605 20.71508398 31.56478656 23.30167665 32 26 C32.66 26.33 33.32 26.66 34 27 C33.34 27 32.68 27 32 27 C32.2475 28.670625 32.2475 28.670625 32.5 30.375 C33 34 33 34 33 36 C31.6875 37.4375 31.6875 37.4375 30 39 C29.505 39.53625 29.01 40.0725 28.5 40.625 C27 42 27 42 24 43 C22.33289654 44.49985609 22.33289654 44.49985609 21 46 C20.67 45.01 20.34 44.02 20 43 C19.46375 43.515625 18.9275 44.03125 18.375 44.5625 C16 46 16 46 12.75 45.6875 C11.38875 45.3471875 11.38875 45.3471875 10 45 C10 44.34 10 43.68 10 43 C7.03 43.495 7.03 43.495 4 44 C4 44.66 4 45.32 4 46 C1 48 1 48 -1 47.8125 C-3.40618987 46.83498536 -4.51717922 46.15009013 -6 44 C-6.1875 40.8125 -6.1875 40.8125 -6 38 C-4.515 37.505 -4.515 37.505 -3 37 C-3.99 35.68 -4.98 34.36 -6 33 C-6.99 33.495 -6.99 33.495 -8 34 C-8.1546875 32.515 -8.1546875 32.515 -8.3125 31 C-8.70304671 28.1029595 -9.4640036 25.73968347 -10.625 23.0625 C-12.27999618 18.82669296 -12.48830312 15.33122945 -11 11 C-9.52595733 8.58606253 -8.05678552 7.00662002 -6 5 C-5.34 5 -4.68 5 -4 5 C-4 4.34 -4 3.68 -4 3 C-2.68 2.67 -1.36 2.34 0 2 C0 1.34 0 0.68 0 0 Z " fill="#4583DB" transform="translate(194,70)"/>
<path d="M0 0 C4.7102718 2.62833166 8.40037801 6.61325601 10.8125 11.4375 C11.06408378 15.11823412 11.00220741 18.81168826 11 22.5 C11.00064453 23.60077881 11.00128906 24.70155762 11.00195312 25.83569336 C10.92763237 37.75488367 9.95938597 49.57973611 8.8125 61.4375 C7.8225 61.4375 6.8325 61.4375 5.8125 61.4375 C5.8125 51.5375 5.8125 41.6375 5.8125 31.4375 C-2.7675 31.4375 -11.3475 31.4375 -20.1875 31.4375 C-19.8575 41.3375 -19.5275 51.2375 -19.1875 61.4375 C-21.6625 61.9325 -21.6625 61.9325 -24.1875 62.4375 C-26.58701244 60.03798756 -26.46133547 59.39615187 -26.56640625 56.11328125 C-26.60056641 55.24896484 -26.63472656 54.38464844 -26.66992188 53.49414062 C-26.69634766 52.58857422 -26.72277344 51.68300781 -26.75 50.75 C-26.95018586 44.89349875 -27.35707375 39.24384032 -28.1875 33.4375 C-28.37113692 30.45730539 -28.41734619 27.4852832 -28.4375 24.5 C-28.458125 23.74009766 -28.47875 22.98019531 -28.5 22.19726562 C-28.54576399 15.498562 -27.28448 10.00047556 -22.9375 4.6875 C-15.60238636 -1.31395661 -9.10807838 -4.01520249 0 0 Z " fill="#BDC6D2" transform="translate(61.1875,107.5625)"/>
<path d="M0 0 C5.81970615 1.34476239 10.16614267 3.64926461 15.125 6.9375 C15.86202148 7.41968994 16.59904297 7.90187988 17.35839844 8.39868164 C23.35310203 12.39968625 28.87159483 16.8190318 34.265625 21.58984375 C36.00768412 23.12534444 37.79422486 24.61275508 39.6328125 26.03125 C42.04166963 28.03465593 43.76374229 30.05107693 45.625 32.5625 C47.87117749 35.60520457 47.87117749 35.60520457 50.41796875 38.38671875 C74.99519646 63.44942257 82.4389337 100.95750627 82.1484375 134.60546875 C81.5619035 167.69656344 67.46570305 201.71942975 44.44921875 225.65234375 C43.64097656 226.42707031 42.83273438 227.20179688 42 228 C41.22140625 228.80050781 40.4428125 229.60101563 39.640625 230.42578125 C17.30232664 252.20231767 -9.098489 262.91351473 -39 270 C-37.68 270.66 -36.36 271.32 -35 272 C-51.83 272 -68.66 272 -86 272 C-82 270 -82 270 -79 269 C-80.6396875 269.061875 -80.6396875 269.061875 -82.3125 269.125 C-86 269 -86 269 -89 267 C-87.92854736 267.01571045 -86.85709473 267.0314209 -85.75317383 267.04760742 C-40.11537378 267.657073 0.14666354 261.99386998 35 230 C35.92167969 229.17242187 36.84335938 228.34484375 37.79296875 227.4921875 C62.70771902 203.97956603 77.60431298 169.08177654 79 135 C80.14303727 94.59611742 65.52838333 58.86963031 38.34375 29.33984375 C28.75088041 19.76296228 17.4906325 12.0879118 5.55737305 5.75170898 C1.10732765 3.32198296 1.10732765 3.32198296 0 0 Z " fill="#989D9F" transform="translate(205,16)"/>
<path d="M0 0 C2.00503509 2.00503509 1.25588663 6.00025444 1.31640625 8.75390625 C1.33718735 9.52935287 1.35796844 10.3047995 1.37937927 11.10374451 C1.44495802 13.58990308 1.50379799 16.07617045 1.5625 18.5625 C1.60567733 20.24415204 1.64929136 21.92579294 1.69335938 23.60742188 C1.80064779 27.73816871 1.90189132 31.86902536 2 36 C2.71865234 35.40977051 3.43730469 34.81954102 4.17773438 34.21142578 C14.80337913 25.49846825 14.80337913 25.49846825 19.5 21.875 C20.4796875 21.10929687 21.459375 20.34359375 22.46875 19.5546875 C23.3040625 19.04164062 24.139375 18.52859375 25 18 C25.99 18.33 26.98 18.66 28 19 C24.87440879 24.13321277 21.12280101 28.08528746 16.8125 32.25 C15.54599576 33.48213679 14.28156612 34.71641078 13.01953125 35.953125 C12.46370361 36.49098633 11.90787598 37.02884766 11.33520508 37.58300781 C9.88953838 38.98099939 9.88953838 38.98099939 9 41 C9.59167969 41.27545654 10.18335938 41.55091309 10.79296875 41.8347168 C14.26926337 43.67015421 17.03866985 46.25076357 20 48.8125 C20.61617187 49.33392578 21.23234375 49.85535156 21.8671875 50.39257812 C25.31435923 53.3552225 28.28215505 56.3241147 31 60 C30.3125 61.9375 30.3125 61.9375 29 64 C26.78515625 64.9453125 26.78515625 64.9453125 24 65 C21.77903717 63.37512665 20.03544025 61.87213079 18.125 59.9375 C17.06701894 58.91733296 16.00842836 57.89779766 14.94921875 56.87890625 C14.44310059 56.38277832 13.93698242 55.88665039 13.41552734 55.37548828 C8.29344539 50.27541796 8.29344539 50.27541796 2 47 C2.02320313 48.13179687 2.04640625 49.26359375 2.0703125 50.4296875 C2.08906901 51.91145175 2.10726934 53.39322312 2.125 54.875 C2.14175781 55.62136719 2.15851563 56.36773437 2.17578125 57.13671875 C2.1933959 59.09194461 2.10320189 61.04742021 2 63 C0 65 0 65 -3.5 65.3125 C-4.655 65.209375 -5.81 65.10625 -7 65 C-9.28262345 61.57606482 -9.25668779 60.3178013 -9.2746582 56.29101562 C-9.28419022 55.11970093 -9.29372223 53.94838623 -9.30354309 52.74157715 C-9.30217598 50.84309021 -9.30217598 50.84309021 -9.30078125 48.90625 C-9.30506638 47.60804321 -9.3093515 46.30983643 -9.31376648 44.97229004 C-9.32122555 42.22513749 -9.32093943 39.47811347 -9.31567383 36.73095703 C-9.30987469 33.2100646 -9.32682165 29.68969746 -9.3500185 26.16889191 C-9.36828757 22.81048891 -9.36457088 19.45220248 -9.36328125 16.09375 C-9.372491 14.82809204 -9.38170074 13.56243408 -9.39118958 12.25842285 C-9.38496078 11.08710815 -9.37873199 9.91579346 -9.37231445 8.70898438 C-9.37294388 7.67656616 -9.3735733 6.64414795 -9.3742218 5.58044434 C-9 3 -9 3 -7.67204285 1.15881348 C-5.13996595 -0.59604875 -2.99007925 -0.26000689 0 0 Z " fill="#BBC5D1" transform="translate(135,106)"/>
<path d="M0 0 C2.71232939 4.06849409 2.30699887 6.16476784 2 11 C1.34 11.66 0.68 12.32 0 13 C-3.625 12.625 -3.625 12.625 -7 12 C-7.28875 11.195625 -7.5775 10.39125 -7.875 9.5625 C-8.73262568 6.8673532 -8.73262568 6.8673532 -11 6 C-13.31082534 5.90264181 -15.62462958 5.87022627 -17.9375 5.875 C-19.80728516 5.87113281 -19.80728516 5.87113281 -21.71484375 5.8671875 C-25.00676297 5.84800569 -25.00676297 5.84800569 -28 7 C-27.608125 8.11375 -27.21625 9.2275 -26.8125 10.375 C-26.59207031 11.00148437 -26.37164062 11.62796875 -26.14453125 12.2734375 C-24.48196286 14.78147582 -22.85947771 15.15897715 -20 16 C-17.85912174 16.28938029 -15.71235042 16.53729395 -13.5625 16.75 C-9.25722668 17.35946678 -6.38944711 17.84388423 -3.25 20.9375 C0.02549737 25.39581586 0.37638785 28.5423762 0 34 C-1.4021011 37.42735824 -2.50800098 38.70394245 -5.6875 40.6171875 C-12.37790861 43.41011751 -20.80528363 43.04698583 -27.6875 40.8125 C-31.20912456 38.88557335 -32.59641134 37.74290311 -34 34 C-33.67 33.01 -33.34 32.02 -33 31 C-32.34 31 -31.68 31 -31 31 C-30.773125 31.78375 -30.54625 32.5675 -30.3125 33.375 C-29.24768757 36.15172517 -29.24768757 36.15172517 -26.76171875 37.1484375 C-23.857479 38.04394566 -21.53193387 38.26703334 -18.5 38.25 C-17.5821875 38.25515625 -16.664375 38.2603125 -15.71875 38.265625 C-11.66477854 37.86954733 -8.89032252 36.89032252 -6 34 C-5.41657647 30.54230809 -5.41657647 30.54230809 -6 27 C-10.9146326 22.96032093 -16.2330588 23.59586692 -22.30859375 23.50390625 C-27.53086998 22.7910241 -30.48183969 20.31840238 -34.375 16.9375 C-36.88362055 12.40268593 -36.8761363 8.05873482 -36 3 C-32.46048312 -1.996965 -27.71877179 -4.29311934 -21.875 -5.8125 C-13.92856513 -6.19700491 -6.14394391 -5.33553024 0 0 Z " fill="#C1CBD9" transform="translate(253,128)"/>
<path d="M0 0 C2.91691525 -0.05401695 5.83282724 -0.09368066 8.75 -0.125 C9.575 -0.14175781 10.4 -0.15851563 11.25 -0.17578125 C12.04921875 -0.18222656 12.8484375 -0.18867187 13.671875 -0.1953125 C14.4050293 -0.20578613 15.13818359 -0.21625977 15.89355469 -0.22705078 C18.29896076 0.03222456 19.91251494 0.80774075 22 2 C22.02854865 4.60427151 22.04913751 7.20812545 22.0625 9.8125 C22.06725342 10.64040039 22.07200684 11.46830078 22.0769043 12.32128906 C22.07929165 17.56773887 21.93697668 22.78730981 21.671875 28.02734375 C21.61378662 29.22319092 21.55569824 30.41903809 21.49584961 31.65112305 C21.37533574 34.016629 21.24113514 36.38148465 21.09204102 38.74536133 C20.77935 45.01341569 20.71191054 49.55245591 24 55 C26.85478326 56.90318884 28.41941308 57.4619099 31.6875 58.125 C32.49574219 58.29257813 33.30398437 58.46015625 34.13671875 58.6328125 C35.05904297 58.81457031 35.05904297 58.81457031 36 59 C35.67 59.99 35.34 60.98 35 62 C29.73811115 62.31571333 26.44535331 61.89914347 22 59 C14.68210794 51.34947648 13.85952844 43.85364526 13.90234375 33.53515625 C13.9037587 32.85698349 13.90517365 32.17881073 13.90663147 31.48008728 C13.91217255 29.34084422 13.92471347 27.20171075 13.9375 25.0625 C13.94252264 23.60091298 13.9470842 22.13932431 13.95117188 20.67773438 C13.96212255 17.11845474 13.97934555 13.55923809 14 10 C13.08476563 10.02320312 12.16953125 10.04640625 11.2265625 10.0703125 C9.44378906 10.09738281 9.44378906 10.09738281 7.625 10.125 C5.84996094 10.15980469 5.84996094 10.15980469 4.0390625 10.1953125 C1 10 1 10 -1 8 C-1.33333333 2.66666667 -1.33333333 2.66666667 0 0 Z " fill="#BBC5D1" transform="translate(82,107)"/>
<path d="M0 0 C16.72614903 0.04646153 16.72614903 0.04646153 19.8125 3.1328125 C19.90014648 6.11035156 19.90014648 6.11035156 19.68359375 9.8984375 C19.6175464 11.27732979 19.5518009 12.65623656 19.48632812 14.03515625 C19.37097196 16.20561565 19.25042211 18.37560814 19.12329102 20.54541016 C19.00432526 22.64179265 18.90551826 24.7384366 18.80859375 26.8359375 C18.73825928 28.09051758 18.6679248 29.34509766 18.59545898 30.63769531 C18.83933659 34.5649751 19.71989436 36.82267433 21.8125 40.1328125 C24.71342502 42.06676251 25.70924737 42.43413191 29 42.7578125 C30.8871875 42.9434375 30.8871875 42.9434375 32.8125 43.1328125 C32.8125 44.4528125 32.8125 45.7728125 32.8125 47.1328125 C27.5723929 47.56057635 22.94983914 47.67822877 18.3828125 44.640625 C12.63617403 39.12270846 11.2170847 31.84454307 10.859375 24.18359375 C10.78738063 19.4979602 10.72948331 14.81864351 10.8125 10.1328125 C9.96945313 10.15601563 9.12640625 10.17921875 8.2578125 10.203125 C6.61425781 10.23019531 6.61425781 10.23019531 4.9375 10.2578125 C3.84695312 10.28101563 2.75640625 10.30421875 1.6328125 10.328125 C-1.1875 10.1328125 -1.1875 10.1328125 -3.1875 8.1328125 C-3.375 4.5703125 -3.375 4.5703125 -3.1875 1.1328125 C-2.1875 0.1328125 -2.1875 0.1328125 0 0 Z " fill="#BEC8D6" transform="translate(176.1875,121.8671875)"/>
<path d="M0 0 C2.18168143 5.8780334 -1.55570328 11.65222887 -4 17 C-11.36842954 32.51810626 -20.17989689 45.47483811 -32 58 C-32.67289063 58.73734375 -33.34578125 59.4746875 -34.0390625 60.234375 C-57.68863105 85.212571 -92.7462069 98.83950881 -126.703125 100.21875 C-146.53697813 100.73682037 -169.2662897 98.54678614 -187 89 C-182.95865104 87.65288368 -181.22289868 88.79159415 -177.25 90.25 C-141.86501722 102.72863663 -103.63203765 98.33107205 -70 83 C-59.83803963 77.89611188 -50.78227063 71.16920051 -42 64 C-41.22785156 63.3709375 -40.45570313 62.741875 -39.66015625 62.09375 C-22.18050136 47.33166142 -7.54916606 24.90797258 -1.578125 2.8984375 C-1 1 -1 1 0 0 Z " fill="#32353B" transform="translate(277,184)"/>
<path d="M0 0 C4.19455891 0.09079132 6.92898606 0.46130031 10.1875 3.3125 C12.28901033 6.60437632 12.40440094 9.20266042 12.3125 13.0625 C12.29445313 14.04734375 12.27640625 15.0321875 12.2578125 16.046875 C12.23460938 16.79453125 12.21140625 17.5421875 12.1875 18.3125 C9.64637768 18.65051152 7.10473254 18.98303379 4.5625 19.3125 C3.84964844 19.40789062 3.13679688 19.50328125 2.40234375 19.6015625 C-1.70071609 20.12856101 -5.66495742 20.41716984 -9.8125 20.3125 C-10.37164356 7.5143252 -10.37164356 7.5143252 -6.8125 2.3125 C-4.32244323 -0.17755677 -3.43779268 0.01546234 0 0 Z " fill="#25487A" transform="translate(50.8125,115.6875)"/>
<path d="M0 0 C0.99 0.495 0.99 0.495 2 1 C-2.75 4 -2.75 4 -5 4 C-5 4.66 -5 5.32 -5 6 C-17.61345482 12.4020775 -31.29669136 15.75239506 -45 19 C-43.68 19.66 -42.36 20.32 -41 21 C-57.83 21 -74.66 21 -92 21 C-88 19 -88 19 -85 18 C-86.093125 18.04125 -87.18625 18.0825 -88.3125 18.125 C-92 18 -92 18 -95 16 C-93.39282104 16.02356567 -93.39282104 16.02356567 -91.75317383 16.04760742 C-60.86806374 16.46005963 -33.29911286 15.54144465 -4.8972168 2.09667969 C-3.28855175 1.34475113 -1.64651246 0.66497858 0 0 Z " fill="#93979A" transform="translate(211,267)"/>
<path d="M0 0 C25.06347035 -0.33031743 46.63224752 0.72660972 70 11 C70 11.33 70 11.66 70 12 C64.74657627 11.64733961 60.27088384 10.88971176 55.3515625 8.890625 C41.59071207 3.67887434 27.92969606 1.73872494 13.3125 1.375 C12.02666016 1.33632812 10.74082031 1.29765625 9.41601562 1.2578125 C6.27747832 1.1644731 3.13893294 1.07868924 0 1 C0 0.67 0 0.34 0 0 Z " fill="#8A8C8F" transform="translate(135,4)"/>
<path d="M0 0 C0.53141602 0.24645264 1.06283203 0.49290527 1.61035156 0.74682617 C16.6307694 7.63788511 31.55262901 12.89473651 48 15 C48 15.33 48 15.66 48 16 C33.21005112 16.96877394 20.93289326 13.4352544 7.5 7.4375 C6.85869141 7.15704834 6.21738281 6.87659668 5.55664062 6.58764648 C3.78125 5.74609375 3.78125 5.74609375 1 4 C0.32617188 1.89086914 0.32617188 1.89086914 0 0 Z " fill="#95999C" transform="translate(78,267)"/>
<path d="M0 0 C0.33 0 0.66 0 1 0 C1 14.85 1 29.7 1 45 C-4.15378216 38.12829046 -3.2127567 30.48810027 -3.25 22.1875 C-3.2809375 20.48110352 -3.2809375 20.48110352 -3.3125 18.74023438 C-3.34447988 11.81259372 -2.59809572 6.43370544 0 0 Z " fill="#8E9495" transform="translate(5,122)"/>
<path d="M0 0 C0 3 0 3 -2.078125 5.33203125 C-10.53029527 13.04972148 -19.40792251 19.94722241 -29.25 25.8125 C-29.97670898 26.25102295 -30.70341797 26.6895459 -31.45214844 27.14135742 C-33.25403466 28.18108756 -35.12357067 29.10175412 -37 30 C-37.99 29.67 -38.98 29.34 -40 29 C-39.0925 28.5875 -38.185 28.175 -37.25 27.75 C-34.04477081 26.22907877 -34.04477081 26.22907877 -32.14453125 24.12109375 C-29.75397253 21.75666135 -27.27424061 20.11426468 -24.4375 18.3125 C-19.16033492 14.863036 -14.32151001 11.10011998 -9.4921875 7.0546875 C-6.43111716 4.53098374 -3.26573408 2.24972792 0 0 Z " fill="#9BA0A3" transform="translate(246,242)"/>
<path d="M0 0 C0 0.33 0 0.66 0 1 C-16.83 1 -33.66 1 -51 1 C-46.77277627 -1.11361187 -44.5359114 -1.32292773 -39.8828125 -1.484375 C-38.84240311 -1.52053925 -38.84240311 -1.52053925 -37.78097534 -1.55743408 C-36.31018532 -1.60566751 -34.83923012 -1.64907289 -33.36816406 -1.68798828 C-31.1664692 -1.74885359 -28.96647568 -1.83229207 -26.765625 -1.91796875 C-17.60066407 -2.22008478 -9.05304175 -1.64208775 0 0 Z " fill="#E0E8EE" transform="translate(170,287)"/>
<path d="M0 0 C1.83984375 0.10546875 1.83984375 0.10546875 4 1 C5.37890625 3.73828125 5.37890625 3.73828125 6.5625 7.3125 C6.77084473 7.94115967 6.97918945 8.56981934 7.19384766 9.2175293 C7.81852005 11.13872353 8.41317959 13.06694452 9 15 C9.33644531 16.0828125 9.67289062 17.165625 10.01953125 18.28125 C11.81307735 24.63646359 12.19206676 29.49781768 11 36 C8.69342115 32.15908896 8.05617286 27.95476295 7.1875 23.625 C5.46990029 15.43555127 3.05510673 7.78801799 0 0 Z " fill="#8D9193" transform="translate(273,89)"/>
<path d="M0 0 C1.134375 0.020625 2.26875 0.04125 3.4375 0.0625 C4.625 1.625 4.625 1.625 5.4375 4.0625 C4.0625 7.8125 4.0625 7.8125 2.4375 11.0625 C0.16720466 10.67106977 -1.39658198 10.17508722 -3.3125 8.875 C-5.12275584 6.25012903 -4.83267626 4.169527 -4.5625 1.0625 C-3.5625 0.0625 -3.5625 0.0625 0 0 Z " fill="#C6CFDC" transform="translate(192.5625,106.9375)"/>
<path d="M0 0 C0.33 0 0.66 0 1 0 C-0.10851339 13.52386342 -4.73790331 24.14515187 -11 36 C-11.99 35.67 -12.98 35.34 -14 35 C-13.75354736 34.50822266 -13.50709473 34.01644531 -13.25317383 33.50976562 C-7.8064698 22.55788654 -3.23944345 11.80199248 0 0 Z " fill="#898A8E" transform="translate(280,178)"/>
<path d="M0 0 C3.10414702 -0.02903577 6.20825909 -0.0468107 9.3125 -0.0625 C10.19357422 -0.07087891 11.07464844 -0.07925781 11.98242188 -0.08789062 C12.82998047 -0.09111328 13.67753906 -0.09433594 14.55078125 -0.09765625 C15.72120972 -0.10551147 15.72120972 -0.10551147 16.9152832 -0.11352539 C19 0 19 0 22 1 C23.40664926 1.14492123 24.8181133 1.24628931 26.23046875 1.31640625 C27.43413086 1.37924805 27.43413086 1.37924805 28.66210938 1.44335938 C29.49548828 1.48267578 30.32886719 1.52199219 31.1875 1.5625 C32.03248047 1.60568359 32.87746094 1.64886719 33.74804688 1.69335938 C35.83184433 1.79931518 37.91590103 1.9001502 40 2 C40 2.33 40 2.66 40 3 C35.91068318 3.05001046 31.82148859 3.08600357 27.73193359 3.10986328 C26.34518324 3.11982603 24.95845335 3.13340118 23.57177734 3.15087891 C15.50959656 3.24983708 7.84275197 3.07347869 0 1 C0 0.67 0 0.34 0 0 Z " fill="#9DA3A6" transform="translate(116,283)"/>
<path d="M0 0 C5.87105063 1.14868382 9.78151625 3.70422048 14.5703125 7.24609375 C16.98889725 9.06259882 16.98889725 9.06259882 19.7421875 10.53515625 C22 12 22 12 23 15 C17.15549417 13.46197215 11.87288478 10.5439162 7 7 C7 6.34 7 5.68 7 5 C6.21625 4.731875 5.4325 4.46375 4.625 4.1875 C2 3 2 3 0 0 Z " fill="#969A9C" transform="translate(56,255)"/>
<path d="M0 0 C7.14057506 3.34471381 11.79263468 8.68676514 16.421875 14.94921875 C17.84197041 16.79463976 19.31345005 18.39980953 21 20 C20.67 20.66 20.34 21.32 20 22 C12.15536028 15.47977997 5.7735722 8.39792321 0 0 Z " fill="#9A9FA2" transform="translate(236,36)"/>
<path d="M0 0 C0 0.33 0 0.66 0 1 C-0.90878906 1.21914062 -1.81757812 1.43828125 -2.75390625 1.6640625 C-10.51752379 3.62288292 -17.87078799 5.95045331 -25.25024414 9.06884766 C-29.82974528 11 -29.82974528 11 -32 11 C-32 10.01 -32 9.02 -32 8 C-21.82198746 3.2838147 -11.34538567 -0.32562285 0 0 Z " fill="#94989B" transform="translate(116,7)"/>
<path d="M0 0 C0.66 0 1.32 0 2 0 C2.226875 0.78375 2.45375 1.5675 2.6875 2.375 C3.76215259 5.11951419 3.76215259 5.11951419 6.125 6.25 C9.75286529 7.19639964 13.26920741 7.62059736 17 8 C16.01 8.33 15.02 8.66 14 9 C14 9.66 14 10.32 14 11 C4.80924855 10.08092486 4.80924855 10.08092486 2 8 C0.1875 5.5625 0.1875 5.5625 -1 3 C-0.67 2.01 -0.34 1.02 0 0 Z " fill="#B9C4D2" transform="translate(220,159)"/>
<path d="M0 0 C0.66 0 1.32 0 2 0 C2.33 0.99 2.66 1.98 3 3 C3.91845703 3.89332031 3.91845703 3.89332031 4.85546875 4.8046875 C7.36465502 7.37328984 8.72210259 9.91263402 10.3125 13.125 C11.11107422 14.70667969 11.11107422 14.70667969 11.92578125 16.3203125 C12.28027344 17.20460937 12.63476562 18.08890625 13 19 C12.67 19.66 12.34 20.32 12 21 C0 4.4351585 0 4.4351585 0 0 Z " fill="#999FA1" transform="translate(17,207)"/>
<path d="M0 0 C5.98074289 1.96613062 8.82872948 5.70365129 12 11 C13.04912087 14.05533446 13.54014688 16.78102813 14 20 C11.22313366 16.34042118 8.54779595 12.61075226 5.875 8.875 C5.19244141 7.92560547 5.19244141 7.92560547 4.49609375 6.95703125 C1.11753387 2.23506773 1.11753387 2.23506773 0 0 Z " fill="#919497" transform="translate(253,56)"/>
<path d="M0 0 C8.25 1.65 16.5 3.3 25 5 C25 5.33 25 5.66 25 6 C22.60385874 6.05425226 20.20896147 6.09379027 17.8125 6.125 C16.80219727 6.15013672 16.80219727 6.15013672 15.77148438 6.17578125 C11.68974608 6.21560309 8.6696298 5.78239162 5 4 C4.071875 3.62875 3.14375 3.2575 2.1875 2.875 C1.465625 2.58625 0.74375 2.2975 0 2 C0 1.34 0 0.68 0 0 Z " fill="#85878A" transform="translate(101,277)"/>
<path d="M0 0 C-3.85725869 2.71092478 -6.27121702 3.33854673 -10.95703125 3.07421875 C-12.06884766 3.01943359 -13.18066406 2.96464844 -14.32617188 2.90820312 C-16.0519043 2.79895508 -16.0519043 2.79895508 -17.8125 2.6875 C-19.56723633 2.5956543 -19.56723633 2.5956543 -21.35742188 2.50195312 C-24.23939083 2.34903232 -27.11969548 2.18122908 -30 2 C-30 1.67 -30 1.34 -30 1 C-25.56325219 0.6359523 -21.12553703 0.28544929 -16.6875 -0.0625 C-14.79354492 -0.2181543 -14.79354492 -0.2181543 -12.86132812 -0.37695312 C-11.04858398 -0.51713867 -11.04858398 -0.51713867 -9.19921875 -0.66015625 C-8.08377686 -0.74918213 -6.96833496 -0.83820801 -5.8190918 -0.92993164 C-3 -1 -3 -1 0 0 Z " fill="#8A8B8D" transform="translate(168,283)"/>
<path d="M0 0 C0.66 0.33 1.32 0.66 2 1 C-2.75 4 -2.75 4 -5 4 C-5 4.66 -5 5.32 -5 6 C-10.24882694 9.17692157 -15.01488629 9.65697965 -21 10 C-18.30244281 7.30244281 -15.12319547 6.33832478 -11.625 5 C-6.54917441 3.07317963 -6.54917441 3.07317963 -1.6484375 0.75 C-1.10445312 0.5025 -0.56046875 0.255 0 0 Z " fill="#8E8F92" transform="translate(211,267)"/>
<path d="M0 0 C2.31563104 6.94689311 -0.71896254 16.15688761 -3 23 C-3.33 23.66 -3.66 24.32 -4 25 C-4.66 24.67 -5.32 24.34 -6 24 C-5.19170931 20.37404806 -4.37765633 16.7494141 -3.5625 13.125 C-3.33240234 12.09246094 -3.10230469 11.05992188 -2.86523438 9.99609375 C-2.64287109 9.00996094 -2.42050781 8.02382812 -2.19140625 7.0078125 C-1.98717041 6.09660645 -1.78293457 5.18540039 -1.57250977 4.24658203 C-1 2 -1 2 0 0 Z " fill="#9CA3A5" transform="translate(9,99)"/>
<path d="M0 0 C0.66 0 1.32 0 2 0 C2 0.66 2 1.32 2 2 C2.66 2 3.32 2 4 2 C4.66 8.27 5.32 14.54 6 21 C3.72002437 18.72002437 3.54789543 17.73947716 2.9296875 14.6484375 C2.75566406 13.79765625 2.58164063 12.946875 2.40234375 12.0703125 C2.22832031 11.18085938 2.05429688 10.29140625 1.875 9.375 C1.69324219 8.4778125 1.51148438 7.580625 1.32421875 6.65625 C0.8760054 4.4387734 0.4349076 2.22011786 0 0 Z " fill="#99A0A2" transform="translate(3,165)"/>
<path d="M0 0 C2.44130016 2.32931391 4.50214432 4.82999263 6.5625 7.5 C7.16191406 8.2734375 7.76132812 9.046875 8.37890625 9.84375 C9.64099833 11.52248452 10.83499409 13.25249114 12 15 C7.03602813 13.75900703 4.67825877 12.39999655 2 8 C1.13108478 5.33894713 0.55989176 2.75280113 0 0 Z " fill="#8D9092" transform="translate(28,222)"/>
<path d="M0 0 C1.03879486 3.203216 0.93230703 5.23793813 0.07421875 8.4765625 C-0.25545898 9.72953125 -0.25545898 9.72953125 -0.59179688 11.0078125 C-0.82962891 11.87148437 -1.06746094 12.73515625 -1.3125 13.625 C-1.53873047 14.49640625 -1.76496094 15.3678125 -1.99804688 16.265625 C-3.73577216 22.73577216 -3.73577216 22.73577216 -6 25 C-5.86722656 24.39414063 -5.73445313 23.78828125 -5.59765625 23.1640625 C-4.32432636 17.12271632 -3.49744596 11.15262108 -3 5 C-2.34 5 -1.68 5 -1 5 C-0.67 3.35 -0.34 1.7 0 0 Z " fill="#A0A9AB" transform="translate(284,168)"/>
<path d="M0 0 C0 3.48069506 -0.2978567 4.95032658 -2 8 C-4.53708741 10.19535727 -7.22301932 12.12069447 -10 14 C-10.66 13.67 -11.32 13.34 -12 13 C-11.38511719 12.39671875 -10.77023438 11.7934375 -10.13671875 11.171875 C-9.32847656 10.37265625 -8.52023438 9.5734375 -7.6875 8.75 C-6.88699219 7.96109375 -6.08648437 7.1721875 -5.26171875 6.359375 C-3.31256349 4.32605933 -1.62578594 2.29398922 0 0 Z " fill="#8E9193" transform="translate(254,231)"/>
<path d="M0 0 C0.33 0 0.66 0 1 0 C1.25049421 2.54115809 1.47583433 5.08055584 1.6875 7.625 C1.76033203 8.33785156 1.83316406 9.05070313 1.90820312 9.78515625 C2.29192279 14.70579663 1.65864697 17.66688385 -1 22 C-1.33 22 -1.66 22 -2 22 C-1.90912109 21.12601563 -1.90912109 21.12601563 -1.81640625 20.234375 C-1.12772567 13.49590043 -0.54522381 6.75149484 0 0 Z " fill="#8A8D8F" transform="translate(284,151)"/>
<path d="M0 0 C5.54050113 0.56825653 10.03715966 2.62886517 15 5 C15 5.33 15 5.66 15 6 C9.33557626 5.63495936 4.99296295 4.9445679 0 2 C0 1.34 0 0.68 0 0 Z " fill="#989DA0" transform="translate(190,10)"/>
<path d="M0 0 C0.99386719 0.00902344 1.98773438 0.01804687 3.01171875 0.02734375 C4.15060547 0.04474609 4.15060547 0.04474609 5.3125 0.0625 C-0.45575253 3.11326467 -6.14671737 4.38953913 -12.6875 4.0625 C-8.41027069 0.67021469 -5.42406114 -0.06381248 0 0 Z " fill="#A0A6A9" transform="translate(176.6875,280.9375)"/>
<path d="M0 0 C0.99 0.33 1.98 0.66 3 1 C-0.28896912 4.81520418 -3.32815331 6.35620209 -8 8 C-8.66 7.67 -9.32 7.34 -10 7 C-8.4050992 5.80008401 -6.79873853 4.61538682 -5.1875 3.4375 C-3.84751953 2.44556641 -3.84751953 2.44556641 -2.48046875 1.43359375 C-1.66191406 0.96050781 -0.84335938 0.48742187 0 0 Z " fill="#9BA0A3" transform="translate(69,23)"/>
<path d="M0 0 C0 0.33 0 0.66 0 1 C-2.37407592 1.64939736 -4.7491639 2.29460053 -7.125 2.9375 C-7.79015625 3.11990234 -8.4553125 3.30230469 -9.140625 3.49023438 C-13.07445227 4.55082506 -16.96973565 5.40362132 -21 6 C-20.67 5.01 -20.34 4.02 -20 3 C-17.05078125 2.05078125 -17.05078125 2.05078125 -13.3125 1.3125 C-11.48138672 0.93544922 -11.48138672 0.93544922 -9.61328125 0.55078125 C-6.33347937 0.05083307 -3.30915434 -0.10674691 0 0 Z " fill="#898A8C" transform="translate(116,7)"/>
<path d="M0 0 C2.99220268 1.36370299 5.29026529 2.94908083 7.75 5.125 C8.67039063 5.93324219 8.67039063 5.93324219 9.609375 6.7578125 C10.06828125 7.16773438 10.5271875 7.57765625 11 8 C10.67 9.32 10.34 10.64 10 12 C8.33032474 10.19019128 6.66417692 8.3773524 5 6.5625 C4.28457031 5.7880957 4.28457031 5.7880957 3.5546875 4.99804688 C0 1.11328125 0 1.11328125 0 0 Z " fill="#9FA6A9" transform="translate(236,36)"/>
<path d="M0 0 C5.17930997 1.24303439 8.70166639 2.85487785 13 6 C10.32528957 7.33735521 9.30659828 6.71006471 6.5 5.8125 C5.7059375 5.57144531 4.911875 5.33039062 4.09375 5.08203125 C1.55845329 3.77181261 0.99844874 2.62092794 0 0 Z " fill="#9EA4A7" transform="translate(205,16)"/>
<path d="M0 0 C1.32 0.33 2.64 0.66 4 1 C4.36552803 2.41377782 4.71695495 3.83120576 5.0625 5.25 C5.25972656 6.03890625 5.45695312 6.8278125 5.66015625 7.640625 C6 10 6 10 5 14 C3.35 9.38 1.7 4.76 0 0 Z " fill="#888A8D" transform="translate(273,89)"/>
<path d="M0 0 C5.41342681 1.14514798 7.9342948 2.34012809 11 7 C10.01 7.495 10.01 7.495 9 8 C8.34 7.67 7.68 7.34 7 7 C7 6.34 7 5.68 7 5 C6.21625 4.731875 5.4325 4.46375 4.625 4.1875 C2 3 2 3 0 0 Z " fill="#9DA3A6" transform="translate(56,255)"/>
<path d="M0 0 C0.66 0 1.32 0 2 0 C0.95724749 3.2441189 -0.61240491 4.60194664 -3.4375 6.3125 C-7 8 -7 8 -10 7 C-9.0925 6.5875 -8.185 6.175 -7.25 5.75 C-4.19047606 4.10256403 -2.38114082 2.46618157 0 0 Z " fill="#9EA5A7" transform="translate(216,264)"/>
<path d="M0 0 C2.93375101 0.67057166 4.61941083 1.4959765 6.4453125 3.9140625 C7.6840771 5.91732182 8.87054327 7.93333449 10 10 C6.54804233 8.5741914 4.8985744 6.90253666 2.75 3.875 C1.96882813 2.78832031 1.96882813 2.78832031 1.171875 1.6796875 C0.78515625 1.12539062 0.3984375 0.57109375 0 0 Z " fill="#9DA2A6" transform="translate(36,236)"/>
<path d="M0 0 C0 3.80345877 -1.13786331 4.77701015 -3.5 7.6875 C-4.47453125 8.89986328 -4.47453125 8.89986328 -5.46875 10.13671875 C-5.9740625 10.75160156 -6.479375 11.36648437 -7 12 C-7 7.38409534 -5.55971281 5.5863658 -2.375 2.25 C-1.59125 1.5075 -0.8075 0.765 0 0 Z " fill="#A6AEB2" transform="translate(261,224)"/>
<path d="M0 0 C0.66 0 1.32 0 2 0 C1.33501617 4.38889325 -0.18757677 7.9811485 -2 12 C-3.15957207 8.52128379 -2.77456651 7.65780355 -1.5625 4.3125 C-1.13130859 3.10013672 -1.13130859 3.10013672 -0.69140625 1.86328125 C-0.46324219 1.24839844 -0.23507812 0.63351563 0 0 Z " fill="#9DA4A6" transform="translate(276,193)"/>
<path d="M0 0 C0.66 0 1.32 0 2 0 C2.66 2.31 3.32 4.62 4 7 C2.0625 6.25 2.0625 6.25 0 5 C-0.8125 2.9375 -0.8125 2.9375 -1 1 C-0.67 0.67 -0.34 0.34 0 0 Z " fill="#B2BECE" transform="translate(220,159)"/>
<path d="M0 0 C2.51699845 2.51699845 3.10964078 4.57554146 4 8 C3.625 10.375 3.625 10.375 3 12 C0.97649676 8.96474514 0.67875982 7.80573798 0.375 4.3125 C0.30023438 3.50425781 0.22546875 2.69601563 0.1484375 1.86328125 C0.09945313 1.24839844 0.05046875 0.63351563 0 0 Z " fill="#A2AAAD" transform="translate(278,96)"/>
<path d="M0 0 C-1.49097658 3.7952131 -3.75700849 5.61042731 -7 8 C-4.18918919 0 -4.18918919 0 0 0 Z " fill="#2F3238" transform="translate(249,236)"/>
<path d="M0 0 C-5.625 3 -5.625 3 -9 3 C-8.67 2.01 -8.34 1.02 -8 0 C-4.71303767 -0.79953138 -3.28976808 -1.09658936 0 0 Z " fill="#8E9193" transform="translate(80,21)"/>
</svg>
